#!OML:ASF H:\BabyWalks\Project 1\Capture day 1\Session 1\baby.ASF
:FULLY-SPECIFIED
:DEGREES
339
root -3.21729 17.9319 -21.6449 -28.0892 79.5616 -33.6814
lowerback 19.7155 2.18388 3.34002
upperback 4.3735 3.71588 -0.683392
thorax -6.01482 1.85832 -3.54186
lowerneck -4.90114 -8.74427 2.58575
upperneck 1.94068 -12.0247 6.64388
head 1.71096 -5.82233 1.28325
rclavicle 1.61016e-014 4.77083e-015
rhumerus -55.763 17.3927 -90.756
rradius 60.2107
rwrist -13.7057
rhand -19.8848 -13.7842
rfingers 7.12502
rthumb 6.45101 -43.666
lclavicle 1.61016e-014 4.77083e-015
lhumerus -69.8186 -11.0423 82.8222
lradius 47.803
lwrist -1.61289
lhand 7.17292 8.56858
lfingers 7.12502
lthumb 32.4403 35.6852
rfemur 2.20736 15.3669 26.9764
rtibia 18.719
rfoot -15.583 11.793
rtoes 1.57348
lfemur -30.1405 -7.01461 -1.0223
ltibia 31.9216
lfoot -22.4708 -14.9333
ltoes -10.2544
340
root -3.0441 17.9114 -21.6613 -26.9789 78.8277 -32.5357
lowerback 19.4635 2.34093 2.92167
upperback 4.4502 3.8316 -0.633177
thorax -5.82118 1.92659 -3.25968
lowerneck -4.89262 -8.75457 2.2706
upperneck 2.03616 -12.0422 7.06688
head 1.79426 -5.81952 1.46129
rclavicle -1.78906e-014 1.86858e-014
rhumerus -55.9275 17.5234 -90.752
rradius 60.1128
rwrist -13.7953
rhand -18.8991 -14.1839
rfingers 7.12502
rthumb 7.40257 -44.0344
lclavicle -1.78906e-014 1.86858e-014
lhumerus -70.3885 -10.7547 82.7552
lradius 48.3715
lwrist -1.30214
lhand 7.01716 8.35719
lfingers 7.12502
lthumb 32.292 35.5041
rfemur 2.89775 15.5682 27.075
rtibia 18.5315
rfoot -15.3873 12.3699
rtoes 1.53187
lfemur -29.6633 -6.80406 -0.780849
ltibia 31.8307
lfoot -22.4501 -14.3657
ltoes -10.44
341
root -2.86998 17.8839 -21.678 -26.0341 78.0787 -31.5477
lowerback 19.1324 2.49753 2.4237
upperback 4.56575 3.93733 -0.515302
thorax -5.55697 1.99257 -2.85155
lowerneck -4.88134 -8.74085 1.93366
upperneck 2.0986 -12.0231 7.42959
head 1.86295 -5.80179 1.62785
rclavicle 4.55217e-014 -2.38542e-015
rhumerus -56.0644 17.7081 -90.6421
rradius 59.9828
rwrist -13.7958
rhand -17.9725 -14.5611
rfingers 7.12502
rthumb 8.29684 -44.3782
lclavicle 4.55217e-014 -2.38542e-015
lhumerus -70.8718 -10.4067 82.7725
lradius 48.9111
lwrist -1.03701
lhand 6.7815 8.12785
lfingers 7.12502
lthumb 32.0677 35.3202
rfemur 3.48034 15.764 27.1701
rtibia 18.6004
rfoot -15.2946 12.9703
rtoes 1.49828
lfemur -29.1186 -6.50848 -0.59508
ltibia 31.8271
lfoot -22.3704 -13.8263
ltoes -10.6776
342
root -2.69486 17.8497 -21.6953 -25.2744 77.3222 -30.7325
lowerback 18.7515 2.65131 1.90762
upperback 4.70821 4.04171 -0.365146
thorax -5.24377 2.05779 -2.3949
lowerneck -4.87019 -8.71444 1.61004
upperneck 2.13487 -11.9851 7.7599
head 1.91946 -5.77653 1.78491
rclavicle -2.08724e-014 4.77083e-015
rhumerus -56.1903 17.8752 -90.4625
rradius 59.8333
rwrist -13.731
rhand -17.1183 -14.9198
rfingers 7.12502
rthumb 9.1212 -44.7026
lclavicle -2.08724e-014 4.77083e-015
lhumerus -71.2717 -10.0852 82.8568
lradius 49.4147
lwrist -0.800316
lhand 6.46866 7.88253
lfingers 7.12502
lthumb 31.7698 35.1344
rfemur 3.95159 15.9431 27.2664
rtibia 18.9402
rfoot -15.2933 13.6026
rtoes 1.50029
lfemur -28.5195 -6.15921 -0.447758
ltibia 31.9104
lfoot -22.1844 -13.3766
ltoes -10.9974
343
root -2.51938 17.8098 -21.7132 -24.6477 76.5723 -30.0399
lowerback 18.3507 2.78737 1.39921
upperback 4.86605 4.12961 -0.207417
thorax -4.90684 2.11322 -1.92975
lowerneck -4.86678 -8.67644 1.31315
upperneck 2.16134 -11.9317 8.05604
head 1.96923 -5.74451 1.92867
rclavicle 6.44062e-014 -7.95139e-016
rhumerus -56.3146 18.0287 -90.2534
rradius 59.6696
rwrist -13.6141
rhand -16.3713 -15.2493
rfingers 7.12502
rthumb 9.84193 -44.9992
lclavicle 6.44062e-014 -7.95139e-016
lhumerus -71.5909 -9.79841 82.9788
lradius 49.883
lwrist -0.567763
lhand 6.12046 7.66176
lfingers 7.12502
lthumb 31.4381 34.9788
rfemur 4.30392 16.0967 27.3509
rtibia 19.5557
rfoot -15.3682 14.2623
rtoes 1.4721
lfemur -27.895 -5.74657 -0.346356
ltibia 32.098
lfoot -21.8205 -13.1225
ltoes -10.813
344
root -2.34425 17.7655 -21.7314 -24.184 75.8494 -29.4922
lowerback 17.9802 2.88897 0.94516
upperback 5.02478 4.18605 -0.0739471
thorax -4.58219 2.15036 -1.51655
lowerneck -4.86852 -8.62581 1.04902
upperneck 2.17882 -11.8631 8.36252
head 2.01491 -5.70435 2.07226
rclavicle -3.49861e-014 1.59028e-014
rhumerus -56.4466 18.1388 -90.0635
rradius 59.4882
rwrist -13.4488
rhand -15.7464 -15.5323
rfingers 7.12502
rthumb 10.4448 -45.2529
lclavicle -3.49861e-014 1.59028e-014
lhumerus -71.8377 -9.58189 83.1042
lradius 50.3013
lwrist -0.339778
lhand 5.73748 7.45856
lfingers 7.12502
lthumb 31.0731 34.8461
rfemur 4.54265 16.2211 27.4334
rtibia 20.4475
rfoot -15.4781 14.9342
rtoes 1.4104
lfemur -27.2703 -5.28268 -0.282663
ltibia 32.4288
lfoot -21.3997 -13.0148
ltoes -10.3088
345
root -2.17031 17.7187 -21.7499 -23.8456 75.1607 -29.0483
lowerback 17.681 2.9529 0.583549
upperback 5.16854 4.21038 0.00166282
thorax -4.30193 2.16879 -1.21498
lowerneck -4.8469 -8.56691 0.839626
upperneck 2.16947 -11.7841 8.70167
head 2.04578 -5.65901 2.2206
rclavicle 3.22031e-014 6.36111e-015
rhumerus -56.5969 18.1622 -89.9347
rradius 59.2799
rwrist -13.2536
rhand -15.2577 -15.7573
rfingers 7.12502
rthumb 10.9162 -45.4535
lclavicle 3.22031e-014 6.36111e-015
lhumerus -72.0096 -9.48608 83.2038
lradius 50.6539
lwrist -0.0880394
lhand 5.34664 7.28689
lfingers 7.12502
lthumb 30.7005 34.745
rfemur 4.65917 16.3127 27.5069
rtibia 21.6247
rfoot -15.5713 15.6243
rtoes 1.25697
lfemur -26.6881 -4.77279 -0.254424
ltibia 32.946
lfoot -20.9748 -13.126
ltoes -9.42045
346
root -1.99904 17.6706 -21.7685 -23.6088 74.52 -28.6868
lowerback 17.4734 2.97099 0.302685
upperback 5.2946 4.1884 0.0209589
thorax -4.07986 2.16239 -1.01506
lowerneck -4.78633 -8.49647 0.673653
upperneck 2.11142 -11.6877 9.08087
head 2.0527 -5.60621 2.37929
rclavicle 4.13472e-014 -5.56597e-015
rhumerus -56.7564 18.1224 -89.8719
rradius 59.0373
rwrist -13.042
rhand -14.913 -15.9285
rfingers 7.12502
rthumb 11.2487 -45.6069
lclavicle 4.13472e-014 -5.56597e-015
lhumerus -72.0918 -9.48705 83.2757
lradius 50.9217
lwrist 0.16972
lhand 4.94403 7.13553
lfingers 7.12502
lthumb 30.3166 34.665
rfemur 4.63023 16.3748 27.5667
rtibia 23.1094
rfoot -15.59 16.3235
rtoes 1.02457
lfemur -26.1867 -4.22422 -0.259115
ltibia 33.6792
lfoot -20.619 -13.4739
ltoes -8.06184
347
root -1.83129 17.6231 -21.7871 -23.3512 73.9358 -28.2822
lowerback 17.3824 2.942 0.088361
upperback 5.39844 4.11337 -0.0415101
thorax -3.93259 2.1286 -0.93581
lowerneck -4.69846 -8.41015 0.551405
upperneck 2.01214 -11.5691 9.51808
head 2.04112 -5.54266 2.55376
rclavicle -2.34566e-014 -2.38542e-015
rhumerus -56.9243 18.0186 -89.911
rradius 58.746
rwrist -12.8102
rhand -14.7487 -16.0321
rfingers 7.12502
rthumb 11.4071 -45.7018
lclavicle -2.34566e-014 -2.38542e-015
lhumerus -72.0744 -9.59744 83.2978
lradius 51.0873
lwrist 0.430834
lhand 4.53698 6.97302
lfingers 7.12502
lthumb 29.9282 34.5733
rfemur 4.43093 16.4108 27.5762
rtibia 24.9257
rfoot -15.4653 17.0496
rtoes 0.753939
lfemur -25.7739 -3.65302 -0.324291
ltibia 34.6242
lfoot -20.4384 -13.9542
ltoes -6.41075
348
root -1.66798 17.576 -21.805 -22.959 73.4235 -27.7163
lowerback 17.3956 2.87612 -0.132863
upperback 5.49445 3.9866 -0.171823
thorax -3.84412 2.06902 -0.920196
lowerneck -4.58551 -8.31199 0.459458
upperneck 1.86072 -11.4307 9.99223
head 2.007 -5.4711 2.73943
rclavicle -2.38542e-015 -2.46493e-014
rhumerus -57.0801 17.8717 -90.0181
rradius 58.4082
rwrist -12.5895
rhand -14.7434 -16.1036
rfingers 7.12502
rthumb 11.4122 -45.7731
lclavicle -2.38542e-015 -2.46493e-014
lhumerus -71.9338 -9.78883 83.2791
lradius 51.1618
lwrist 0.661436
lhand 4.15722 6.81073
lfingers 7.12502
lthumb 29.5658 34.4757
rfemur 4.04474 16.4233 27.4939
rtibia 27.0878
rfoot -15.1552 17.7949
rtoes 0.405513
lfemur -25.4413 -3.08942 -0.482316
ltibia 35.7448
lfoot -20.5058 -14.5029
ltoes -4.69552
349
root -1.50929 17.5297 -21.8218 -22.3763 72.9925 -26.9273
lowerback 17.4747 2.78533 -0.443481
upperback 5.61029 3.8125 -0.331973
thorax -3.77278 1.98647 -0.879293
lowerneck -4.45389 -8.19728 0.350184
upperneck 1.6427 -11.2619 10.4937
head 1.94838 -5.38791 2.9418
rclavicle 6.32135e-014 -8.74653e-015
rhumerus -57.2053 17.7445 -90.147
rradius 58.0251
rwrist -12.3766
rhand -14.9078 -16.1603
rfingers 7.12502
rthumb 11.2536 -45.8384
lclavicle 6.32135e-014 -8.74653e-015
lhumerus -71.6295 -10.0171 83.2549
lradius 51.1237
lwrist 0.815672
lhand 3.80116 6.60978
lfingers 7.12502
lthumb 29.2258 34.3345
rfemur 3.4699 16.4171 27.2957
rtibia 29.5892
rfoot -14.5961 18.5524
rtoes 0.0382425
lfemur -25.1605 -2.55611 -0.753478
ltibia 36.9728
lfoot -20.8502 -15.0493
ltoes -3.1219
350
root -1.3555 17.4842 -21.8368 -21.5309 72.6473 -25.8412
lowerback 17.6179 2.68169 -0.864558
upperback 5.74808 3.60261 -0.531089
thorax -3.7147 1.88669 -0.812582
lowerneck -4.33514 -8.07757 0.231988
upperneck 1.39097 -11.0819 11.0053
head 1.88058 -5.3008 3.15119
rclavicle -1.39149e-014 9.54166e-015
rhumerus -57.3003 17.6164 -90.2965
rradius 57.6077
rwrist -12.1904
rhand -15.2221 -16.2377
rfingers 7.12502
rthumb 10.9505 -45.9321
lclavicle -1.39149e-014 9.54166e-015
lhumerus -71.1505 -10.3147 83.221
lradius 50.984
lwrist 0.896247
lhand 3.47198 6.36714
lfingers 7.12502
lthumb 28.9115 34.1461
rfemur 2.71575 16.3858 26.9511
rtibia 32.3921
rfoot -13.7916 19.2822
rtoes -0.462446
lfemur -24.8934 -2.06811 -1.16203
ltibia 38.2206
lfoot -21.4471 -15.5395
ltoes -1.82731
351
root -1.2068 17.4396 -21.8498 -20.3872 72.3845 -24.4313
lowerback 17.8152 2.56623 -1.40476
upperback 5.9054 3.35615 -0.768224
thorax -3.66612 1.76911 -0.713045
lowerneck -4.26869 -7.95463 0.100571
upperneck 1.15875 -10.8984 11.487
head 1.8258 -5.21123 3.35229
rclavicle 4.13472e-014 -3.89618e-014
rhumerus -57.3692 17.5102 -90.4743
rradius 57.1511
rwrist -12.0151
rhand -15.6907 -16.3301
rfingers 7.12502
rthumb 10.4985 -46.048
lclavicle 4.13472e-014 -3.89618e-014
lhumerus -70.4833 -10.6701 83.1628
lradius 50.725
lwrist 0.877818
lhand 3.17834 6.0753
lfingers 7.12502
lthumb 28.631 33.9019
rfemur 1.79387 16.3206 26.4446
rtibia 35.4322
rfoot -12.7722 19.936
rtoes -1.05039
lfemur -24.608 -1.62384 -1.71773
ltibia 39.3994
lfoot -22.2364 -15.9245
ltoes -0.85503
352
root -1.06249 17.3966 -21.8605 -18.9813 72.1848 -22.7236
lowerback 18.0737 2.45485 -2.03423
upperback 6.08006 3.09778 -1.04776
thorax -3.62938 1.64604 -0.607137
lowerneck -4.25938 -7.84031 -0.0254
upperneck 0.952478 -10.7294 11.9368
head 1.78684 -5.12712 3.53988
rclavicle 4.77083e-015 4.77083e-015
rhumerus -57.417 17.3797 -90.679
rradius 56.6541
rwrist -11.8573
rhand -16.2696 -16.4554
rfingers 7.12502
rthumb 9.94008 -46.2007
lclavicle 4.77083e-015 4.77083e-015
lhumerus -69.6301 -11.1325 83.0677
lradius 50.3512
lwrist 0.728868
lhand 2.97251 5.76698
lfingers 7.12502
lthumb 28.4343 33.6266
rfemur 0.751787 16.2157 25.7927
rtibia 38.6338
rfoot -11.6117 20.4556
rtoes -1.65309
lfemur -24.2547 -1.22838 -2.40453
ltibia 40.4446
lfoot -23.1482 -16.1878
ltoes -0.489099
